<svg width="82" height="14" viewBox="0 0 82 14" fill="none" xmlns="http://www.w3.org/2000/svg">
    <path d="M7.39496 9.12378C7.39496 9.70178 7.33263 10.2401 7.20796 10.7388C7.08329 11.2374 6.86229 11.6738 6.54496 12.0478C6.23896 12.4218 5.81963 12.7164 5.28696 12.9318C4.76563 13.1471 4.10263 13.2548 3.29796 13.2548C2.54996 13.2548 1.89829 13.1528 1.34296 12.9488C0.798961 12.7334 0.379628 12.5068 0.0849609 12.2688L0.849961 10.5858C1.13329 10.7784 1.47896 10.9654 1.88696 11.1468C2.30629 11.3168 2.73129 11.4018 3.16196 11.4018C3.88729 11.4018 4.41429 11.2204 4.74296 10.8578C5.07163 10.4951 5.23596 9.87178 5.23596 8.98778V1.21878H7.39496V9.12378Z" fill="white"/>
    <path d="M17.7974 12.9998C17.6387 12.5351 17.4744 12.0761 17.3044 11.6228C17.1344 11.1694 16.97 10.7048 16.8114 10.2288H11.8474C11.6887 10.7048 11.5244 11.1751 11.3544 11.6398C11.1957 12.0931 11.037 12.5464 10.8784 12.9998H8.65137C9.09337 11.7418 9.5127 10.5801 9.90937 9.51478C10.306 8.44944 10.6914 7.44078 11.0654 6.48878C11.4507 5.53678 11.8304 4.63011 12.2044 3.76878C12.5784 2.90744 12.9637 2.05744 13.3604 1.21878H15.3834C15.78 2.05744 16.1654 2.90744 16.5394 3.76878C16.9134 4.63011 17.2874 5.53678 17.6614 6.48878C18.0467 7.44078 18.4377 8.44944 18.8344 9.51478C19.2424 10.5801 19.6674 11.7418 20.1094 12.9998H17.7974ZM14.3294 3.49678C14.0687 4.09744 13.7684 4.82844 13.4284 5.68978C13.0997 6.55111 12.754 7.48611 12.3914 8.49478H16.2674C15.9047 7.48611 15.5534 6.54544 15.2134 5.67278C14.8734 4.80011 14.5787 4.07478 14.3294 3.49678Z" fill="white"/>
    <path d="M21.5985 12.9998V1.21878H29.1635V3.03778H23.7405V5.94478H28.5685V7.72978H23.7405V11.1808H29.5715V12.9998H21.5985Z" fill="white"/>
    <path d="M36.6358 2.83378C35.4231 2.83378 34.4938 3.21344 33.8478 3.97278C33.2131 4.72078 32.8958 5.76344 32.8958 7.10078C32.8958 7.73544 32.9694 8.31911 33.1168 8.85178C33.2754 9.37311 33.5021 9.82078 33.7968 10.1948C34.1028 10.5688 34.4768 10.8634 34.9188 11.0788C35.3721 11.2828 35.8991 11.3848 36.4998 11.3848C36.8738 11.3848 37.1968 11.3734 37.4688 11.3508C37.7408 11.3168 37.9561 11.2771 38.1148 11.2318V6.99878H40.2568V12.6598C39.9621 12.7731 39.4634 12.8978 38.7608 13.0338C38.0581 13.1698 37.2478 13.2378 36.3298 13.2378C35.4798 13.2378 34.7034 13.1018 34.0008 12.8298C33.2981 12.5578 32.6974 12.1611 32.1988 11.6398C31.7114 11.1184 31.3318 10.4781 31.0598 9.71878C30.7878 8.95944 30.6518 8.08678 30.6518 7.10078C30.6518 6.11478 30.7991 5.24211 31.0938 4.48278C31.3998 3.72344 31.8134 3.08311 32.3348 2.56178C32.8561 2.02911 33.4681 1.62678 34.1708 1.35478C34.8734 1.08278 35.6214 0.946777 36.4148 0.946777C36.9588 0.946777 37.4404 0.986444 37.8598 1.06578C38.2904 1.13378 38.6588 1.21311 38.9648 1.30378C39.2708 1.39444 39.5201 1.49078 39.7128 1.59278C39.9168 1.69478 40.0584 1.76844 40.1378 1.81378L39.4918 3.56478C39.1518 3.36078 38.7268 3.19078 38.2168 3.05478C37.7181 2.90744 37.1911 2.83378 36.6358 2.83378Z" fill="white"/>
    <path d="M42.7323 12.9998V1.21878H50.2973V3.03778H44.8743V5.94478H49.7023V7.72978H44.8743V11.1808H50.7053V12.9998H42.7323Z" fill="white"/>
    <path d="M55.9402 1.09978C57.6402 1.09978 58.9379 1.41144 59.8332 2.03478C60.7399 2.65811 61.1932 3.61011 61.1932 4.89078C61.1932 6.48878 60.4055 7.57111 58.8302 8.13778C59.0455 8.39844 59.2892 8.71578 59.5612 9.08978C59.8332 9.46378 60.1109 9.87178 60.3942 10.3138C60.6775 10.7444 60.9495 11.1921 61.2102 11.6568C61.4709 12.1101 61.7032 12.5578 61.9072 12.9998H59.5102C59.2949 12.5918 59.0625 12.1838 58.8132 11.7758C58.5639 11.3564 58.3089 10.9541 58.0482 10.5688C57.7989 10.1721 57.5495 9.80378 57.3002 9.46378C57.0509 9.11244 56.8185 8.80078 56.6032 8.52878C56.4445 8.54011 56.3085 8.54578 56.1952 8.54578C56.0819 8.54578 55.9742 8.54578 55.8722 8.54578H54.8352V12.9998H52.6932V1.38878C53.2145 1.27544 53.7699 1.20178 54.3592 1.16778C54.9485 1.12244 55.4755 1.09978 55.9402 1.09978ZM56.0932 2.95278C55.6399 2.95278 55.2205 2.96978 54.8352 3.00378V6.81178H55.7702C56.2915 6.81178 56.7505 6.78344 57.1472 6.72678C57.5439 6.67011 57.8725 6.56811 58.1332 6.42078C58.4052 6.27344 58.6092 6.07511 58.7452 5.82578C58.8812 5.57644 58.9492 5.25911 58.9492 4.87378C58.9492 4.51111 58.8812 4.20511 58.7452 3.95578C58.6092 3.70644 58.4109 3.50811 58.1502 3.36078C57.9009 3.21344 57.6005 3.11144 57.2492 3.05478C56.8979 2.98678 56.5125 2.95278 56.0932 2.95278Z" fill="white"/>
    <path d="M72.074 13.2548C71.2693 13.2548 70.578 13.1414 70 12.9148C69.422 12.6768 68.9403 12.3481 68.555 11.9288C68.181 11.5094 67.9033 11.0164 67.722 10.4498C67.5406 9.88311 67.45 9.25978 67.45 8.57978V1.21878H69.609V8.37578C69.609 8.90844 69.6656 9.36744 69.779 9.75278C69.9036 10.1268 70.0737 10.4328 70.289 10.6708C70.5157 10.9088 70.7763 11.0844 71.071 11.1978C71.377 11.3111 71.717 11.3678 72.091 11.3678C72.465 11.3678 72.805 11.3111 73.111 11.1978C73.417 11.0844 73.6777 10.9088 73.893 10.6708C74.1197 10.4328 74.2896 10.1268 74.403 9.75278C74.5276 9.36744 74.59 8.90844 74.59 8.37578V1.21878H76.749V8.57978C76.749 9.25978 76.6526 9.88311 76.46 10.4498C76.2786 11.0164 75.9953 11.5094 75.61 11.9288C75.236 12.3481 74.7543 12.6768 74.165 12.9148C73.5757 13.1414 72.8786 13.2548 72.074 13.2548Z" fill="white"/>
    <path d="M79.4881 1.21878H81.6301V12.9998H79.4881V1.21878Z" fill="white"/>
</svg>
